
<svg version="1.1" xmlns="http://www.w3.org/2000/svg" viewBox="0 0 1142 441.5">
  <!-- svg-source:excalidraw -->
  <defs>
    <style>
      @font-face {
        font-family: "Virgil";
        src: url("https://excalidraw.com/FG_Virgil.woff2");
      }
      @font-face {
        font-family: "Cascadia";
        src: url("https://excalidraw.com/Cascadia.woff2");
      }
    </style>
  </defs>
  <rect x="0" y="0" width="1142" height="441.5" fill="#ffffff"></rect><g transform="translate(10 10) rotate(0 93.5 71.5)"><path d="M1.2235440723598003 1.6959168799221516 C44.96543656792492 -2.4608468450419605, 88.88940837867558 -0.2858701385371387, 185.4665563814342 -0.8569117896258831 M0.806367689743638 0.17475161515176296 C55.638092750869696 -2.494054329190403, 111.9171387501061 -1.7769839284755289, 186.2166961375624 -0.8607437256723642 M187.19720537588 -0.6993008963763714 C186.19389857927337 30.438120268099013, 186.67625333944335 59.3512868244201, 185.01695032045245 143.2089185602963 M186.1436613742262 -0.32180472649633884 C186.71740369929 48.68792998101563, 186.98790596855804 96.06391186565162, 186.82253878749907 142.76981136761606 M186.59528608247638 143.05448721721768 C118.49582247380167 143.48674941224976, 53.5860065396875 140.42355930967256, 0.6498447172343731 143.65434562042356 M186.68186181224883 142.15153906308115 C112.91401758808642 143.28894199157133, 38.17760074734687 143.95303769135847, -0.20268202386796474 143.33602586947381 M-0.028624940663576126 141.24548922851682 C-0.5096563429571688 96.98841280061751, -1.7438466877676546 50.12841965518891, 0.14929718896746635 -1.2753913514316082 M0.008432382717728615 142.03954616747797 C0.7292103368230164 103.34628810305148, 1.0075823265500365 62.714467645436514, 0.1445127073675394 -0.22710266150534153" style="stroke: rgb(0, 0, 0); stroke-width: 1px; fill: none;"></path></g><g transform="translate(56 68.5) rotate(0 47.5 13)"><text x="0" y="18" font-family="Virgil" font-size="20px" fill="#000000" text-anchor="start">New Idea</text></g><g><g transform="translate(199 76) rotate(0 94.40478702113035 6.074296981841329)"><path d="M-0.8308515138924122 0.3665728993713855 C30.68178804839651 2.524217481166124, 157.91215107565125 9.911239428073168, 189.64042555615305 11.782021064311266 M-0.040929657910019124 0.6844830254651608 C31.264095872944843 2.2752162537910046, 156.78979104529446 9.510214075241237, 188.20012222876773 11.180104846749455" style="stroke: rgb(0, 0, 0); stroke-width: 1px; fill: none;"></path></g><g transform="translate(199 76) rotate(0 94.40478702113035 6.074296981841329)"><path d="M160.09399708133125 19.260060470499724 C169.1701559315308 16.277383167096414, 178.81845967877427 14.438271401366126, 189.9877784875594 11.135372980181128 M158.62023210856998 19.1510603110722 C169.34765382345128 17.741541008749042, 178.6911219925636 13.979641890063185, 188.4759558895044 11.946742267031222" style="stroke: rgb(0, 0, 0); stroke-width: 1px; fill: none;"></path></g><g transform="translate(199 76) rotate(0 94.40478702113035 6.074296981841329)"><path d="M161.23360549611235 -1.229480643122118 C169.71554204153966 2.890826740751427, 178.96834581071786 8.162590040436873, 189.9877784875594 11.135372980181128 M159.75984052335107 -1.3384808025496415 C169.90123164959527 4.160135843981861, 178.86019201473255 7.311478463308493, 188.4759558895044 11.946742267031222" style="stroke: rgb(0, 0, 0); stroke-width: 1px; fill: none;"></path></g></g><g transform="translate(395 13) rotate(0 73.5 74)"><path d="M44.88090394411881 5.480907088248387 C53.948643368172725 0.09945202127672292, 66.23429341931991 -0.9319028057346207, 76.82575837322133 -0.3426657338013257 C87.41722332712276 0.2465713381319693, 99.04615695174182 3.7289195818088245, 108.42969366752735 9.016329519848156 C117.81323038331287 14.303739457887488, 126.93880674843845 22.503072240528518, 133.12697866793445 31.381793894434665 C139.31515058743045 40.26051554834081, 143.94354969204525 51.39214882724106, 145.55872518450337 62.28865944328504 C147.1739006769615 73.18517005932902, 145.88427572808007 86.23214231111454, 142.81803162268312 96.76085759069855 C139.75178751728617 107.28957287028256, 134.61806797949887 117.76525257628481, 127.16126055212172 125.46095112078909 C119.70445312474455 133.15664966529337, 108.31431701917928 139.2357194656621, 98.07718705842011 142.9350488577242 C87.84005709766093 146.63437824978632, 76.42006958789779 148.87663759850656, 65.73848078756669 147.65692747316172 C55.056891987235595 146.43721734781687, 43.09309532991001 141.6772430154067, 33.98765425643356 135.6167881056551 C24.88221318295711 129.5563331959035, 16.66084277982485 120.56665361745067, 11.105834346707987 111.29419801465204 C5.5508259135911215 102.02174241185341, 1.7270035495948395 90.93732918009542, 0.6576036577323663 79.98205448886331 C-0.4117962341301069 69.0267797976312, 0.8846763222731475 55.90132792203678, 4.689434995533148 45.56254986725937 C8.494193668793148 35.223771812481964, 14.658423957620217 25.285266585956666, 23.486155697292368 17.949386160198863 C32.31388743696452 10.613505734441059, 49.75818915274638 4.242061881023924, 57.65582543356605 1.547267312712549 C65.55346171438572 -1.1475272555988254, 70.6900591361787 0.5596779501420077, 70.87197338221037 1.7806187503306177 M46.029663234522644 3.6009566311861363 C55.11034699990775 -0.7386970458250444, 69.5722158121817 0.5608897742912309, 80.51251172826318 1.7601774376541357 C91.45280764434466 2.9594651010170407, 102.28581051202143 5.3117206884645185, 111.67143873101158 10.796682611363565 C121.05706695000173 16.28164453426261, 130.84135817152736 25.21834970038765, 136.82628104220407 34.66994897504841 C142.81120391288079 44.12154824970918, 146.8752875301879 56.46998914241113, 147.5809759550719 67.50627825932814 C148.28666437995588 78.54256737624516, 144.89074847748557 90.72365409758297, 141.06041159150809 100.88768367655048 C137.2300747055306 111.051713255518, 132.14509758360742 121.17292727695138, 124.59895463920692 128.49045573313327 C117.05281169480644 135.80798418931516, 106.4020921343836 141.78174925776617, 95.78355392510514 144.79285441364186 C85.16501571582668 147.80395956951756, 71.54187989467096 148.3829986294796, 60.8877253835362 146.55708666838746 C50.233570872401444 144.7311747072953, 40.654613407302726 139.86957409099762, 31.858626858296603 133.837382647089 C23.06264030929048 127.80519120318036, 13.350250802907194 119.78991909485055, 8.111806089499467 110.36393800493572 C2.873361376091739 100.93795691502089, 0.5757684425401308 88.28302946765834, 0.4279585778502337 77.28149610760002 C0.2801487131603366 66.2799627475417, 2.729478712776917 54.42451120686609, 7.224946901360084 44.3547378445858 C11.720415089943252 34.284964482305504, 20.91282687399058 23.17344221984664, 27.40076770934924 16.86285593391827 C33.888708544707896 10.552269647989899, 42.57502543282356 7.993353183144454, 46.15259191351204 6.4912201290155735 C49.73015839420052 4.989087074886693, 48.518094897220784 6.751656856748268, 48.866166593480145 7.850057609144983" style="stroke: rgb(0, 0, 0); stroke-width: 1px; fill: none;"></path></g><g transform="translate(414.5 48.5) rotate(0 54 38.5)"><text x="0" y="17.666666666666668" font-family="Virgil" font-size="20px" fill="#000000" text-anchor="start">Will I get</text><text x="0" y="43.333333333333336" font-family="Virgil" font-size="20px" fill="#000000" text-anchor="start">to work on</text><text x="0" y="69" font-family="Virgil" font-size="20px" fill="#000000" text-anchor="start">it?</text></g><g><g transform="translate(471 162) rotate(0 3.2679606981575375 73.8129361097794)"><path d="M0.09978014901280408 -0.31242700293660164 C1.1364782281219958 24.207216343532007, 5.598830527812242 123.48174135809144, 6.436141247302293 148.17414852902294 M0.6011048398353158 -0.5482763094641268 C1.2431441632844504 23.85857257038976, 4.678653096947818 122.06697610150404, 5.614265857134014 146.64718971600757" style="stroke: rgb(0, 0, 0); stroke-width: 1px; fill: none;"></path></g><g transform="translate(471 162) rotate(0 3.2679606981575375 73.8129361097794)"><path d="M-6.178518009097339 119.5722863060255 C-1.5383614768300218 126.216283656721, 1.492558941279995 138.44345669744177, 5.839507864657789 147.30413489615546 M-5.54043945176995 118.26232705645454 C-3.4251912421059125 127.41011522032373, -0.5405507282846536 133.04927696013553, 5.949944469947368 146.18950882939623" style="stroke: rgb(0, 0, 0); stroke-width: 1px; fill: none;"></path></g><g transform="translate(471 162) rotate(0 3.2679606981575375 73.8129361097794)"><path d="M14.329302013538069 118.8311248492338 C12.454576491832963 125.72786090407948, 8.964090853582631 138.19072037113554, 5.839507864657789 147.30413489615546 M14.967380570865458 117.52116559966284 C11.543144126156303 126.71749453657307, 8.889862233032026 132.5567991796384, 5.949944469947368 146.18950882939623" style="stroke: rgb(0, 0, 0); stroke-width: 1px; fill: none;"></path></g></g><g><g transform="translate(547 83) rotate(0 74.4348663962819 2.500069599598646)"><path d="M-0.20152783915400507 -0.7503238029778003 C24.584738161911567 0.2624802999198437, 123.61952215308943 4.587185113877058, 148.51970645859836 5.750463002175093 M-0.9257548781298102 1.4862777959369122 C24.182141639584053 2.455751028563827, 124.7597422035473 3.609240765478462, 149.79548767069355 4.265352048184723" style="stroke: rgb(0, 0, 0); stroke-width: 1px; fill: none;"></path></g><g transform="translate(547 83) rotate(0 74.4348663962819 2.500069599598646)"><path d="M120.17229974403611 13.211289388264497 C129.07735851405292 11.62885595746543, 137.91939965387547 7.601995432527641, 148.09987308317795 3.2535980830155316 M121.58060877345136 13.696448291788776 C132.88615566471177 11.20690604769494, 142.1060540442008 7.011342397686337, 150.07741630496457 5.2424569448642435" style="stroke: rgb(0, 0, 0); stroke-width: 1px; fill: none;"></path></g><g transform="translate(547 83) rotate(0 74.4348663962819 2.500069599598646)"><path d="M120.54535622511932 -7.306528021191151 C129.28884814875354 -3.0725978737827093, 138.02512434244642 -1.2824683099586984, 148.09987308317795 3.2535980830155316 M121.95366525453457 -6.821369117666872 C133.20618599455264 -1.4926992388868818, 142.28386876499187 2.133485417917261, 150.07741630496457 5.2424569448642435" style="stroke: rgb(0, 0, 0); stroke-width: 1px; fill: none;"></path></g></g><g transform="translate(703 17) rotate(0 72.5 71)"><path d="M90.14874348251979 2.396706157760164 C100.46247565912205 4.119601635218444, 112.0418001519257 11.475300567463425, 120.36102983327082 18.34680319567707 C128.68025951461593 25.218305823890713, 136.15931259819058 33.88802950666064, 140.0641215705905 43.62572192704202 C143.9689305429904 53.36341434742341, 144.59689811496693 66.01557036049664, 143.78988366767018 76.77295771796537 C142.98286922037343 87.5303450754341, 140.58553867508158 99.24692090631832, 135.22203488680998 108.17004607185439 C129.85853109853838 117.09317123739045, 120.89851236004571 124.66987794254952, 111.6088609380405 130.31170871118172 C102.31920951603527 135.95353947981394, 90.45305946105475 141.0211790772487, 79.48412635477861 142.02103068364764 C68.51519324850247 143.0208822900466, 55.93198853431182 140.36958688127697, 45.79526230038369 136.31081834957547 C35.65853606645556 132.25204981787397, 25.949501309677917 125.2762706863251, 18.663768951209818 117.66841949343856 C11.378036592741719 110.06056830055202, 5.048964434735259 100.62116737850039, 2.080868149575096 90.66371119225619 C-0.8872281355850666 80.70625500601199, -1.4772922067290017 68.42571126370581, 0.8551912402488426 57.92368237597332 C3.187674687226687 47.421653488240835, 9.344272717882053 36.14465678971713, 16.07576883144216 27.65153786586125 C22.80726494500227 19.15841894200537, 31.742207332017095 11.679119551631665, 41.24416792160949 6.964968832838025 C50.74612851120188 2.2508181140443844, 63.64742241432143 -0.25848555655573097, 73.0875323689965 -0.6333664469005953 C82.52764232367159 -1.0082473372454597, 92.813560576161 3.339030008525519, 97.88482764965993 4.715683490768839 C102.95609472315886 6.092336973012159, 103.93814024853128 6.600415050049311, 103.51513480999004 7.626554446559325 M42.08559705042797 6.497631985395415 C50.90103769818763 1.3294640335972607, 64.4816859533797 -0.05460143866670464, 75.30846890189758 0.2901237108979018 C86.13525185041547 0.6348488604625082, 97.55057971615439 3.4814044158404487, 107.04629474153532 8.565982882783054 C116.54200976691625 13.65056134972566, 126.10506117840283 21.692271871077764, 132.28275905418317 30.79759451255353 C138.4604569299635 39.902917154029296, 142.48264402751656 52.66293190552434, 144.11248199621733 63.19791873163764 C145.7423199649181 73.73290555775094, 145.77521110951685 84.01404929619001, 142.06178686638773 94.00751546923334 C138.34836262325862 104.00098164227667, 129.78332313627658 115.48942090944374, 121.8319365374427 123.15871576989761 C113.88054993860882 130.82801063035149, 104.794367907768 137.22770537363843, 94.35346727338451 140.02328463195659 C83.91256663900101 142.81886389027474, 70.17193697768049 141.90198963745857, 59.186532731141725 139.93219131980658 C48.201128484602954 137.96239300215458, 36.89007344770365 134.43876196939098, 28.441041794151893 128.2044947260446 C19.992010140600136 121.97022748269822, 13.263912890796767 112.1171714950926, 8.4923428098312 102.52658785972832 C3.720772728865632 92.93600422436404, 0.19270851757495205 80.98104683828291, -0.18837869164151755 70.6609929138589 C-0.5694659008579872 60.34093898943491, 1.2286019795541883 50.14207794881409, 6.205819554532383 40.606264313184354 C11.183037129510577 31.070450677554618, 23.326528608413646 19.393710878930357, 29.67492675822765 13.4461111000805 C36.02332490804165 7.4985113212306445, 42.029212559592686 5.924708564504489, 44.2962084534164 4.920665640085218 C46.56320434724011 3.916622715665947, 43.00846957383246 6.383401207387091, 43.276902121169904 7.421853553564873" style="stroke: rgb(0, 0, 0); stroke-width: 1px; fill: none;"></path></g><g transform="translate(723.5 49.5) rotate(0 52 38.5)"><text x="0" y="17.666666666666668" font-family="Virgil" font-size="20px" fill="#000000" text-anchor="start">Do I have</text><text x="0" y="43.333333333333336" font-family="Virgil" font-size="20px" fill="#000000" text-anchor="start">time right</text><text x="0" y="69" font-family="Virgil" font-size="20px" fill="#000000" text-anchor="start">now?</text></g><g><g transform="translate(783 164) rotate(0 0.7007718391716935 80.15744865462185)"><path d="M-1.111943393200636 -1.0195331878960132 C-0.8242949458460014 25.92533573433757, 1.8124086009959384 134.10891200825571, 2.513487071543932 161.3344304971397 M-0.9628046747110784 -0.8644529784657061 C-0.8228096920313935 25.890022619273513, 1.335364678694556 133.26173859825357, 1.6502764819003641 160.41605781247839" style="stroke: rgb(0, 0, 0); stroke-width: 1px; fill: none;"></path></g><g transform="translate(783 164) rotate(0 0.7007718391716935 80.15744865462185)"><path d="M-10.765109961125388 133.25109481970208 C-6.335160779415235 144.5641143355311, -0.7517316584942497 153.87080376945977, 1.5291882043518126 159.36381226634606 M-9.652409213799372 132.42886899384098 C-7.182919358116322 140.4383937103995, -3.722710162623917 146.48962023073372, 2.6454264277406034 161.2990934666805" style="stroke: rgb(0, 0, 0); stroke-width: 1px; fill: none;"></path></g><g transform="translate(783 164) rotate(0 0.7007718391716935 80.15744865462185)"><path d="M9.753403105045388 132.91849304697897 C6.680178224470936 144.1629942154934, 4.761361195035133 153.5912938441261, 1.5291882043518126 159.36381226634606 M10.866103852371404 132.09626722111787 C8.148654972221284 140.01226468587882, 6.422561052984796 146.14756033950135, 2.6454264277406034 161.2990934666805" style="stroke: rgb(0, 0, 0); stroke-width: 1px; fill: none;"></path></g></g><g><g transform="translate(852 82) rotate(0 68.03037889620282 0.9996986098028771)"><path d="M-1.0781951732933521 0.8407899565994741 C21.86117600724101 1.5270455308258535, 114.02917153164745 2.4390041537582876, 137.3719950132072 2.971282524615526 M-1.4923629761673511 -1.7332225742004812 C21.426184620168062 -0.9621998675726354, 114.07604913583026 3.227835662160069, 137.55312076857314 3.732619793806225" style="stroke: rgb(0, 0, 0); stroke-width: 1px; fill: none;"></path></g><g transform="translate(852 82) rotate(0 68.03037889620282 0.9996986098028771)"><path d="M110.42314793441514 11.957704279248503 C116.99368026105205 12.314604782525889, 126.69678971269231 8.15171361942286, 136.576600062605 2.1016220056451855 M109.77050173368374 12.072948773999599 C115.82075860295772 10.970923993045437, 121.71366386666452 9.381655775823061, 137.21590378968045 3.9318316650576888" style="stroke: rgb(0, 0, 0); stroke-width: 1px; fill: none;"></path></g><g transform="translate(852 82) rotate(0 68.03037889620282 0.9996986098028771)"><path d="M111.13842953810435 -8.551034702299418 C117.3142260706918 -2.499528160509948, 126.81850106945656 -0.9613865086621978, 136.576600062605 2.1016220056451855 M110.48578333737295 -8.435790207548322 C116.33911962013381 -5.324745557704961, 122.08518587936906 -2.703807893097073, 137.21590378968045 3.9318316650576888" style="stroke: rgb(0, 0, 0); stroke-width: 1px; fill: none;"></path></g></g><g transform="translate(997 40) rotate(0 67.5 46.5)"><path d="M1.6509621031582355 1.5916815511882305 C40.01489107776434 -0.19580266857519746, 78.93325196765365 1.0536953411065042, 136.54220997169614 0.017543744295835495 M0.7619300838559866 -0.8729221876710653 C31.93812503386289 0.49538515107706194, 65.79532546177506 -0.12323840362951155, 135.6876240130514 0.2987340036779642 M136.58910309150815 -0.4046698100864887 C132.84663931639864 30.084548640809956, 133.980062525589 59.21483078189195, 134.23583268001676 93.87929708883166 M135.10907033644617 0.9342105928808451 C133.43727319097147 30.59846058692783, 134.9712934360467 61.74616433158516, 135.1435651537031 93.03353440202773 M136.56833981350064 94.33113748952746 C83.85963319521397 95.10833774441853, 34.25638388283551 94.17400549286977, -0.9394830577075481 91.21332139894366 M135.95272204838693 93.84599768556654 C98.80285321827978 93.89835441289469, 63.8768365457654 92.8688994067721, 0.7570895310491323 92.46875327266753 M-0.6387447230517864 92.15347356721759 C1.251140062790364 64.78651464972646, -1.4085351777262987 33.94318778179586, 0.24587701633572578 0.729455541819334 M-0.37953909672796726 92.26826184429228 C0.41992950150743125 67.00829977262765, 0.7663314909674227 42.37839789688587, 0.5960072036832571 -0.1362710054963827" style="stroke: rgb(0, 0, 0); stroke-width: 1px; fill: none;"></path></g><g transform="translate(1005.5 61) rotate(0 59 25.5)"><text x="0" y="18.5" font-family="Virgil" font-size="20px" fill="#000000" text-anchor="start">Work on the</text><text x="0" y="44" font-family="Virgil" font-size="20px" fill="#000000" text-anchor="start">Idea</text></g><g transform="translate(718.5 338.5) rotate(0 67.5 46.5)"><path d="M0.40943967178463936 0.06239671632647514 C50.43488981295377 1.2331060639582574, 101.3051771428436 0.17203812515363093, 136.52871106937528 0.41202981397509575 M-0.5568982008844614 -0.03305489383637905 C48.27248476911336 1.853289641905576, 96.12302214279771 0.9290420790202916, 135.0383838173002 0.8252448979765177 M135.4458739645779 -1.2178558595478535 C134.96301544399932 23.29474068339914, 134.37862325401977 44.38651126809418, 136.02118860557675 94.79517979547381 M134.09476361237466 -0.665667062625289 C133.7157042471133 23.981497468613092, 133.98994933044537 47.892084012180575, 135.7776673194021 93.77917485870421 M135.29525457695127 93.23368401452899 C100.74140443187207 92.52316093975678, 64.26310436613858 91.95184672409668, 0.1939220316708088 93.8103907816112 M134.27205065451562 92.15714412368834 C105.98341526743025 92.52291831253096, 76.23143721371889 92.67331293104216, -0.028774047270417213 92.04796420969069 M-0.5862417332828045 94.5252927057445 C-0.1737546748109161 62.58218737039715, 1.0681394511274993 31.546136936172843, -1.664880644530058 -1.4535921104252338 M0.3669917341321707 92.05799829401076 C0.6462258709408343 56.873626552708444, -0.36785530915483833 22.56412701904773, -0.43617709912359715 -0.7047517951577902" style="stroke: rgb(0, 0, 0); stroke-width: 1px; fill: none;"></path></g><g transform="translate(409.5 325.5) rotate(0 67.5 46.5)"><path d="M1.1617481596767902 -1.2545842416584492 C27.200254370458424 1.1163023672066628, 53.58811437152326 -0.3056473770178856, 135.17964397743344 -0.4055653102695942 M-0.46775188483297825 -0.851232772693038 C33.60195817518979 -0.7420294473879041, 66.78333777561784 -1.9756127188913526, 134.56698135100305 -0.24320573173463345 M135.95749412849545 -0.8009233959019184 C134.0865967729874 30.069025207124653, 134.27720992358402 61.06636562533677, 135.3382935412228 94.76752836629748 M135.85341790877283 -0.6641256269067526 C134.5165156779252 28.829298694990577, 133.8554370460473 59.48488770499826, 134.52136609517038 92.8627799693495 M133.6048827059567 93.29309923574328 C91.29255222063512 90.1019890868105, 46.255600916221724 92.00792783135549, 0.6260515339672565 93.13359613344073 M134.46895072422922 92.72040926851332 C88.84783851262182 92.69306690869853, 43.6937425211072 91.07404281077906, 0.8374356385320425 92.85570758022368 M0.5639968998730183 93.69435377046466 C0.9063979077152907 57.97461269889027, 1.229693858604878 19.889831801876426, -1.0399677865207195 -0.28502314165234566 M-0.1373277548700571 92.05194466747344 C0.7952653379179537 57.633236734755336, 0.7024278254248202 22.710799935460088, 0.7392500396817923 0.33866547979414463" style="stroke: rgb(0, 0, 0); stroke-width: 1px; fill: none;"></path></g><g transform="translate(448 359) rotate(0 29 13)"><text x="0" y="18" font-family="Virgil" font-size="20px" fill="#000000" text-anchor="start">Ideas</text></g><g transform="translate(740.5 372) rotate(0 45.5 13)"><text x="0" y="18" font-family="Virgil" font-size="20px" fill="#000000" text-anchor="start">Idea Log</text></g><g><g transform="translate(475 207) rotate(0 106.60772845575582 0.11918550648383075)"><path d="M0.8842301554977892 1.0738360337913038 C36.17031533991297 1.325106272349755, 176.70683501834668 0.5998372805615266, 211.93918714001774 0.7024357967078686 M0.716888017449528 -0.3985096938349306 C35.8951557624278 -0.7028585144815346, 177.0238236596125 -1.10146017898495, 212.4985688940622 -0.7409147239662708" style="stroke: rgb(0, 0, 0); stroke-width: 1px; fill: none;"></path></g></g><g><g transform="translate(687 206) rotate(0 33.452841453999326 61.08981621811168)"><path d="M0.25336510464549056 -0.21303365752100945 C11.512546771019696 20.27851722513636, 55.53299438282848 101.83852017993729, 66.65231780335307 122.03268565610051 M0.302116697933525 -1.6248740508221091 C11.315509074237198 19.181855837100496, 54.38960618725047 103.39693143387015, 65.50469276597724 123.80450648704544" style="stroke: rgb(0, 0, 0); stroke-width: 1px; fill: none;"></path></g><g transform="translate(687 206) rotate(0 33.452841453999326 61.08981621811168)"><path d="M42.951065906307676 104.71192443163123 C48.1960051104589 109.72915622783643, 51.38434454087019 112.02029688790442, 64.37259130096064 124.13468867057935 M43.84854613894878 102.98023425021198 C47.57777172885805 108.47511979035657, 51.73386354048084 110.95742847354227, 65.78394147483633 123.41893182398752" style="stroke: rgb(0, 0, 0); stroke-width: 1px; fill: none;"></path></g><g transform="translate(687 206) rotate(0 33.452841453999326 61.08981621811168)"><path d="M61.11585640941487 95.16412948389245 C62.204983308935326 102.36576214802909, 61.31044123776832 106.8029509756395, 64.37259130096064 124.13468867057935 M62.01333664205597 93.4324393024732 C61.88015172236973 101.12302310708787, 62.199675056673414 105.62191266513338, 65.78394147483633 123.41893182398752" style="stroke: rgb(0, 0, 0); stroke-width: 1px; fill: none;"></path></g></g><g transform="translate(441 174) rotate(0 12 13)"><text x="0" y="18" font-family="Virgil" font-size="20px" fill="#000000" text-anchor="start">No</text></g><g transform="translate(553 56) rotate(0 15 13)"><text x="0" y="18" font-family="Virgil" font-size="20px" fill="#000000" text-anchor="start">Yes</text></g><g transform="translate(858 54) rotate(0 15 13)"><text x="0" y="18" font-family="Virgil" font-size="20px" fill="#000000" text-anchor="start">Yes</text></g><g transform="translate(748 170) rotate(0 12 13)"><text x="0" y="18" font-family="Virgil" font-size="20px" fill="#000000" text-anchor="start">No</text></g></svg>